<svg width="64" height="64" viewBox="0 0 64 64" fill="none" xmlns="http://www.w3.org/2000/svg">
<path opacity="0.08" d="M64 32C64 53.3333 53.3333 64 32 64C10.6667 64 0 53.3333 0 32C0 10.6667 10.6667 0 32 0C53.3333 0 64 10.6667 64 32Z" fill="#0083F5"/>
<path d="M60 32C60 50.6667 50.6667 60 32 60C13.3333 60 4 50.6667 4 32C4 13.3333 13.3333 4 32 4C50.6667 4 60 13.3333 60 32Z" fill="url(#paint0_linear)"/>
<path fill-rule="evenodd" clip-rule="evenodd" d="M28.75 26C28.75 24.2051 30.2051 22.75 32 22.75C33.7949 22.75 35.25 24.2051 35.25 26C35.25 27.7949 33.7949 29.25 32 29.25C30.2051 29.25 28.75 27.7949 28.75 26ZM32 21.25C29.3766 21.25 27.25 23.3766 27.25 26C27.25 28.6234 29.3766 30.75 32 30.75C34.6234 30.75 36.75 28.6234 36.75 26C36.75 23.3766 34.6234 21.25 32 21.25ZM25.75 38C25.75 36.2051 27.2051 34.75 29 34.75H35C36.7949 34.75 38.25 36.2051 38.25 38C38.25 38.6904 37.6904 39.25 37 39.25H27C26.3096 39.25 25.75 38.6904 25.75 38ZM29 33.25C26.3766 33.25 24.25 35.3766 24.25 38C24.25 39.5188 25.4812 40.75 27 40.75H37C38.5188 40.75 39.75 39.5188 39.75 38C39.75 35.3766 37.6234 33.25 35 33.25H29Z" fill="white"/>
<defs>
<linearGradient id="paint0_linear" x1="32" y1="4" x2="32" y2="60" gradientUnits="userSpaceOnUse">
<stop stop-color="#5965E0"/>
<stop offset="1" stop-color="#5965E0"/>
</linearGradient>
</defs>
</svg>
